<svg viewBox="0 0 70 90" xmlns="http://www.w3.org/2000/svg"><path d="M59 78.8H11.6l.4-2.2q9.2-2.2 12.2-4.4 4.5-3.3 7.4-9.6 3-6.4 3-13.5v-3q-3.6 7.9-8.4 11.5-5 3.7-10.2 3.7-6.5 0-10.8-5-4.8-5.4-4.8-13 0-7.3 4-12.4 4.3-5 9.5-5 3.4 0 9.1 3.2-2.2-4.4-3-6.7-.6-2.3-.6-5 0-7.2 4.3-12.2Q28.3 0 35 0q6.6 0 11 5 4.5 5.1 4.5 12.3 0 5.5-3.7 11.8l5.5-3q1.6-.4 3.4-.4 5.6 0 9.6 5 4.2 5 4.2 12.3 0 7.7-4.6 13-4.3 5.2-10.8 5.2-3.5 0-7.1-2-3.7-2-6.6-5.1-2-2.5-4.8-8.1.4 10.1 2.7 16 2.6 5.9 7.8 9.8 3.4 2.6 12.4 4.6z"/></svg>