<svg viewBox="0 0 96.042999 102" xmlns="http://www.w3.org/2000/svg"><path d="m 47.448628,95.725563 -0.8226,-2.377908 C 44.432425,85.939556 40.22802,78.439998 33.281612,69.202737 A 428.6665,428.93812 0 0 0 21.582398,54.569454 98.803515,98.866125 0 0 1 9.4261846,38.10701 25.59203,25.608246 0 0 1 6.318581,21.278735 C 8.1465831,13.047513 15.367191,6.8283674 24.050201,6.0967033 A 22.575827,22.590131 0 0 1 46.900228,19.723949 l 1.005401,2.103534 0.731201,-1.737702 c 1.0968,-2.377909 2.193602,-4.115611 4.021605,-6.127688 4.570005,-5.3045652 10.054011,-7.8653897 16.634819,-7.9568477 3.016203,0 4.661405,0.274374 7.220608,1.0974962 3.747404,1.1889542 6.580808,3.0181145 9.140011,5.9447715 6.580807,7.682473 5.758206,18.01723 -2.376404,30.821353 -1.828001,2.926656 -5.301205,7.316642 -9.962611,12.804123 -5.392606,6.584977 -7.951809,9.786008 -10.693812,13.352871 A 82.625695,82.678051 0 0 0 48.454029,95.725563 c -0.1828,0.365833 -0.914,0.365833 -1.005401,0 z" style="stroke-width:10;paint-order:markers stroke fill"/></svg>